<svg width="36" height="34" viewBox="0 0 36 34" fill="none" xmlns="http://www.w3.org/2000/svg">
<path d="M35.486 16.956C35.1158 26.1483 27.4352 33.5 18 33.5C8.56478 33.5 0.884214 26.1483 0.513974 16.956L17.844 22.6489L18 22.7002L18.156 22.6489L35.486 16.956Z" stroke="black"/>
<path d="M0.513973 17.044C0.884212 7.85164 8.56478 0.5 18 0.5C27.4352 0.5 35.1158 7.85164 35.486 17.044L18.156 11.3511L18 11.2998L17.844 11.3511L0.513973 17.044Z" stroke="black"/>
<path d="M11.2344 19V15.3636H12.804C13.0739 15.3636 13.31 15.4128 13.5124 15.511C13.7148 15.6093 13.8723 15.7507 13.9847 15.9354C14.0972 16.12 14.1534 16.3414 14.1534 16.5994C14.1534 16.8598 14.0954 17.0794 13.9794 17.2582C13.8646 17.4369 13.703 17.5719 13.4947 17.663C13.2875 17.7541 13.0455 17.7997 12.7685 17.7997H11.831V17.0327H12.5696C12.6856 17.0327 12.7844 17.0185 12.8661 16.9901C12.949 16.9605 13.0123 16.9137 13.0561 16.8498C13.1011 16.7859 13.1236 16.7024 13.1236 16.5994C13.1236 16.4953 13.1011 16.4106 13.0561 16.3455C13.0123 16.2792 12.949 16.2307 12.8661 16.1999C12.7844 16.168 12.6856 16.152 12.5696 16.152H12.2216V19H11.2344ZM13.3651 17.331L14.2741 19H13.2017L12.3139 17.331H13.3651ZM14.5742 19V15.3636H17.195V16.1591H15.5614V16.7841H17.06V17.5795H15.5614V18.2045H17.1879V19H14.5742ZM17.6846 19V15.3636H19.2542C19.5241 15.3636 19.7602 15.4128 19.9626 15.511C20.165 15.6093 20.3225 15.7507 20.4349 15.9354C20.5474 16.12 20.6036 16.3414 20.6036 16.5994C20.6036 16.8598 20.5456 17.0794 20.4296 17.2582C20.3148 17.4369 20.1532 17.5719 19.9449 17.663C19.7377 17.7541 19.4956 17.7997 19.2187 17.7997H18.2812V17.0327H19.0198C19.1358 17.0327 19.2346 17.0185 19.3163 16.9901C19.3992 16.9605 19.4625 16.9137 19.5063 16.8498C19.5513 16.7859 19.5738 16.7024 19.5738 16.5994C19.5738 16.4953 19.5513 16.4106 19.5063 16.3455C19.4625 16.2792 19.3992 16.2307 19.3163 16.1999C19.2346 16.168 19.1358 16.152 19.0198 16.152H18.6718V19H17.6846ZM19.8153 17.331L20.7243 19H19.6519L18.7641 17.331H19.8153ZM21.969 19H20.9037L22.104 15.3636H23.4534L24.6537 19H23.5883L22.7929 16.3651H22.7645L21.969 19ZM21.7702 17.5653H23.773V18.304H21.7702V17.5653Z" fill="black"/>
</svg>
